<mxfile host="app.diagrams.net" agent="Mozilla/5.0 (Macintosh; Intel Mac OS X 10_15_7) AppleWebKit/537.36 (KHTML, like Gecko) Chrome/129.0.0.0 Safari/537.36" version="24.7.16">
  <diagram name="Trang-1" id="bWxdLHo53PnvaAdj_trc">
    <mxGraphModel dx="1543" dy="843" grid="1" gridSize="10" guides="1" tooltips="1" connect="1" arrows="1" fold="1" page="1" pageScale="1" pageWidth="1169" pageHeight="1654" math="0" shadow="0">
      <root>
        <mxCell id="0" />
        <mxCell id="1" parent="0" />
        <mxCell id="x16m9CoY5_Q_ytsuJj7b-8" style="edgeStyle=orthogonalEdgeStyle;rounded=0;orthogonalLoop=1;jettySize=auto;html=1;entryX=0.5;entryY=0;entryDx=0;entryDy=0;" edge="1" parent="1" source="x16m9CoY5_Q_ytsuJj7b-1" target="x16m9CoY5_Q_ytsuJj7b-5">
          <mxGeometry relative="1" as="geometry" />
        </mxCell>
        <mxCell id="x16m9CoY5_Q_ytsuJj7b-9" style="edgeStyle=orthogonalEdgeStyle;rounded=0;orthogonalLoop=1;jettySize=auto;html=1;" edge="1" parent="1" source="x16m9CoY5_Q_ytsuJj7b-1" target="x16m9CoY5_Q_ytsuJj7b-6">
          <mxGeometry relative="1" as="geometry" />
        </mxCell>
        <mxCell id="x16m9CoY5_Q_ytsuJj7b-10" style="edgeStyle=orthogonalEdgeStyle;rounded=0;orthogonalLoop=1;jettySize=auto;html=1;entryX=0.5;entryY=0;entryDx=0;entryDy=0;" edge="1" parent="1" source="x16m9CoY5_Q_ytsuJj7b-1" target="x16m9CoY5_Q_ytsuJj7b-7">
          <mxGeometry relative="1" as="geometry" />
        </mxCell>
        <mxCell id="x16m9CoY5_Q_ytsuJj7b-1" value="Producer" style="rounded=0;whiteSpace=wrap;html=1;" vertex="1" parent="1">
          <mxGeometry x="334" y="100" width="120" height="60" as="geometry" />
        </mxCell>
        <mxCell id="x16m9CoY5_Q_ytsuJj7b-2" value="RabbitMQ" style="swimlane;whiteSpace=wrap;html=1;" vertex="1" parent="1">
          <mxGeometry x="10" y="190" width="800" height="410" as="geometry" />
        </mxCell>
        <mxCell id="x16m9CoY5_Q_ytsuJj7b-12" style="edgeStyle=orthogonalEdgeStyle;rounded=0;orthogonalLoop=1;jettySize=auto;html=1;entryX=0.5;entryY=0;entryDx=0;entryDy=0;" edge="1" parent="x16m9CoY5_Q_ytsuJj7b-2" source="x16m9CoY5_Q_ytsuJj7b-5" target="x16m9CoY5_Q_ytsuJj7b-11">
          <mxGeometry relative="1" as="geometry" />
        </mxCell>
        <mxCell id="x16m9CoY5_Q_ytsuJj7b-20" style="edgeStyle=orthogonalEdgeStyle;rounded=0;orthogonalLoop=1;jettySize=auto;html=1;entryX=0.5;entryY=0;entryDx=0;entryDy=0;" edge="1" parent="x16m9CoY5_Q_ytsuJj7b-2" source="x16m9CoY5_Q_ytsuJj7b-5" target="x16m9CoY5_Q_ytsuJj7b-13">
          <mxGeometry relative="1" as="geometry" />
        </mxCell>
        <mxCell id="x16m9CoY5_Q_ytsuJj7b-21" style="edgeStyle=orthogonalEdgeStyle;rounded=0;orthogonalLoop=1;jettySize=auto;html=1;entryX=0.5;entryY=0;entryDx=0;entryDy=0;" edge="1" parent="x16m9CoY5_Q_ytsuJj7b-2" source="x16m9CoY5_Q_ytsuJj7b-5" target="x16m9CoY5_Q_ytsuJj7b-14">
          <mxGeometry relative="1" as="geometry" />
        </mxCell>
        <mxCell id="x16m9CoY5_Q_ytsuJj7b-62" style="edgeStyle=orthogonalEdgeStyle;rounded=0;orthogonalLoop=1;jettySize=auto;html=1;entryX=0.5;entryY=0;entryDx=0;entryDy=0;" edge="1" parent="x16m9CoY5_Q_ytsuJj7b-2" source="x16m9CoY5_Q_ytsuJj7b-5" target="x16m9CoY5_Q_ytsuJj7b-15">
          <mxGeometry relative="1" as="geometry" />
        </mxCell>
        <mxCell id="x16m9CoY5_Q_ytsuJj7b-5" value="Crawler&lt;div&gt;exchange&lt;/div&gt;&lt;div&gt;(direct)&lt;/div&gt;" style="ellipse;whiteSpace=wrap;html=1;" vertex="1" parent="x16m9CoY5_Q_ytsuJj7b-2">
          <mxGeometry x="40" y="60" width="140" height="90" as="geometry" />
        </mxCell>
        <mxCell id="x16m9CoY5_Q_ytsuJj7b-23" style="edgeStyle=orthogonalEdgeStyle;rounded=0;orthogonalLoop=1;jettySize=auto;html=1;entryX=0.5;entryY=0;entryDx=0;entryDy=0;" edge="1" parent="x16m9CoY5_Q_ytsuJj7b-2" source="x16m9CoY5_Q_ytsuJj7b-6" target="x16m9CoY5_Q_ytsuJj7b-17">
          <mxGeometry relative="1" as="geometry" />
        </mxCell>
        <mxCell id="x16m9CoY5_Q_ytsuJj7b-6" value="Aggregator exchange&lt;div&gt;(fanout)&lt;/div&gt;" style="ellipse;whiteSpace=wrap;html=1;" vertex="1" parent="x16m9CoY5_Q_ytsuJj7b-2">
          <mxGeometry x="455" y="60" width="160" height="90" as="geometry" />
        </mxCell>
        <mxCell id="x16m9CoY5_Q_ytsuJj7b-44" style="edgeStyle=orthogonalEdgeStyle;rounded=0;orthogonalLoop=1;jettySize=auto;html=1;entryX=0;entryY=0.5;entryDx=0;entryDy=0;exitX=0;exitY=0.5;exitDx=0;exitDy=0;" edge="1" parent="x16m9CoY5_Q_ytsuJj7b-2" source="x16m9CoY5_Q_ytsuJj7b-7" target="x16m9CoY5_Q_ytsuJj7b-16">
          <mxGeometry relative="1" as="geometry">
            <Array as="points">
              <mxPoint x="630" y="105" />
              <mxPoint x="630" y="320" />
            </Array>
          </mxGeometry>
        </mxCell>
        <mxCell id="x16m9CoY5_Q_ytsuJj7b-45" style="edgeStyle=orthogonalEdgeStyle;rounded=0;orthogonalLoop=1;jettySize=auto;html=1;entryX=0.5;entryY=0;entryDx=0;entryDy=0;" edge="1" parent="x16m9CoY5_Q_ytsuJj7b-2" source="x16m9CoY5_Q_ytsuJj7b-7" target="x16m9CoY5_Q_ytsuJj7b-19">
          <mxGeometry relative="1" as="geometry" />
        </mxCell>
        <mxCell id="x16m9CoY5_Q_ytsuJj7b-7" value="Default exchange" style="ellipse;whiteSpace=wrap;html=1;" vertex="1" parent="x16m9CoY5_Q_ytsuJj7b-2">
          <mxGeometry x="640" y="60" width="140" height="90" as="geometry" />
        </mxCell>
        <mxCell id="x16m9CoY5_Q_ytsuJj7b-11" value="Block queue" style="ellipse;whiteSpace=wrap;html=1;aspect=fixed;" vertex="1" parent="x16m9CoY5_Q_ytsuJj7b-2">
          <mxGeometry x="10" y="280" width="110" height="110" as="geometry" />
        </mxCell>
        <mxCell id="x16m9CoY5_Q_ytsuJj7b-13" value="Transaction&lt;div&gt;queue&lt;/div&gt;" style="ellipse;whiteSpace=wrap;html=1;aspect=fixed;" vertex="1" parent="x16m9CoY5_Q_ytsuJj7b-2">
          <mxGeometry x="130" y="280" width="110" height="110" as="geometry" />
        </mxCell>
        <mxCell id="x16m9CoY5_Q_ytsuJj7b-14" value="Transaction&lt;div&gt;receipt&amp;nbsp;&lt;span style=&quot;background-color: initial;&quot;&gt;queue&lt;/span&gt;&lt;/div&gt;" style="ellipse;whiteSpace=wrap;html=1;aspect=fixed;" vertex="1" parent="x16m9CoY5_Q_ytsuJj7b-2">
          <mxGeometry x="210" y="140" width="110" height="110" as="geometry" />
        </mxCell>
        <mxCell id="x16m9CoY5_Q_ytsuJj7b-15" value="Internal&lt;div&gt;transaction&lt;/div&gt;&lt;div&gt;queue&lt;/div&gt;" style="ellipse;whiteSpace=wrap;html=1;aspect=fixed;" vertex="1" parent="x16m9CoY5_Q_ytsuJj7b-2">
          <mxGeometry x="345" y="140" width="110" height="110" as="geometry" />
        </mxCell>
        <mxCell id="x16m9CoY5_Q_ytsuJj7b-16" value="Dead letter&lt;div&gt;queue&lt;/div&gt;" style="ellipse;whiteSpace=wrap;html=1;aspect=fixed;" vertex="1" parent="x16m9CoY5_Q_ytsuJj7b-2">
          <mxGeometry x="670" y="280" width="80" height="80" as="geometry" />
        </mxCell>
        <mxCell id="x16m9CoY5_Q_ytsuJj7b-17" value="Transfer&lt;div&gt;queue&lt;/div&gt;" style="ellipse;whiteSpace=wrap;html=1;aspect=fixed;" vertex="1" parent="x16m9CoY5_Q_ytsuJj7b-2">
          <mxGeometry x="495" y="180" width="80" height="80" as="geometry" />
        </mxCell>
        <mxCell id="x16m9CoY5_Q_ytsuJj7b-19" value="Balance queue" style="ellipse;whiteSpace=wrap;html=1;aspect=fixed;" vertex="1" parent="x16m9CoY5_Q_ytsuJj7b-2">
          <mxGeometry x="670" y="180" width="80" height="80" as="geometry" />
        </mxCell>
        <mxCell id="x16m9CoY5_Q_ytsuJj7b-4" style="edgeStyle=orthogonalEdgeStyle;rounded=0;orthogonalLoop=1;jettySize=auto;html=1;entryX=0.5;entryY=0;entryDx=0;entryDy=0;" edge="1" parent="1" source="x16m9CoY5_Q_ytsuJj7b-3" target="x16m9CoY5_Q_ytsuJj7b-1">
          <mxGeometry relative="1" as="geometry" />
        </mxCell>
        <mxCell id="x16m9CoY5_Q_ytsuJj7b-3" value="Commands" style="rounded=0;whiteSpace=wrap;html=1;" vertex="1" parent="1">
          <mxGeometry x="334" y="10" width="120" height="60" as="geometry" />
        </mxCell>
        <mxCell id="x16m9CoY5_Q_ytsuJj7b-79" value="" style="edgeStyle=orthogonalEdgeStyle;rounded=0;orthogonalLoop=1;jettySize=auto;html=1;" edge="1" parent="1" source="x16m9CoY5_Q_ytsuJj7b-48" target="x16m9CoY5_Q_ytsuJj7b-78">
          <mxGeometry relative="1" as="geometry" />
        </mxCell>
        <mxCell id="x16m9CoY5_Q_ytsuJj7b-80" value="Consume" style="edgeLabel;html=1;align=center;verticalAlign=middle;resizable=0;points=[];" vertex="1" connectable="0" parent="x16m9CoY5_Q_ytsuJj7b-79">
          <mxGeometry x="-0.1446" relative="1" as="geometry">
            <mxPoint x="16" as="offset" />
          </mxGeometry>
        </mxCell>
        <mxCell id="x16m9CoY5_Q_ytsuJj7b-87" value="" style="edgeStyle=orthogonalEdgeStyle;rounded=0;orthogonalLoop=1;jettySize=auto;html=1;" edge="1" parent="1" source="x16m9CoY5_Q_ytsuJj7b-57" target="x16m9CoY5_Q_ytsuJj7b-86">
          <mxGeometry relative="1" as="geometry" />
        </mxCell>
        <mxCell id="x16m9CoY5_Q_ytsuJj7b-88" value="Consume" style="edgeLabel;html=1;align=center;verticalAlign=middle;resizable=0;points=[];" vertex="1" connectable="0" parent="x16m9CoY5_Q_ytsuJj7b-87">
          <mxGeometry x="-0.0187" y="-4" relative="1" as="geometry">
            <mxPoint x="9" y="-4" as="offset" />
          </mxGeometry>
        </mxCell>
        <mxCell id="x16m9CoY5_Q_ytsuJj7b-93" value="" style="edgeStyle=orthogonalEdgeStyle;rounded=0;orthogonalLoop=1;jettySize=auto;html=1;" edge="1" parent="1" source="x16m9CoY5_Q_ytsuJj7b-70" target="x16m9CoY5_Q_ytsuJj7b-92">
          <mxGeometry relative="1" as="geometry" />
        </mxCell>
        <mxCell id="x16m9CoY5_Q_ytsuJj7b-94" value="Consume" style="edgeLabel;html=1;align=center;verticalAlign=middle;resizable=0;points=[];" vertex="1" connectable="0" parent="x16m9CoY5_Q_ytsuJj7b-93">
          <mxGeometry x="-0.152" y="1" relative="1" as="geometry">
            <mxPoint x="6" y="1" as="offset" />
          </mxGeometry>
        </mxCell>
        <mxCell id="x16m9CoY5_Q_ytsuJj7b-84" value="" style="edgeStyle=orthogonalEdgeStyle;rounded=0;orthogonalLoop=1;jettySize=auto;html=1;" edge="1" parent="1" source="x16m9CoY5_Q_ytsuJj7b-78" target="x16m9CoY5_Q_ytsuJj7b-83">
          <mxGeometry relative="1" as="geometry" />
        </mxCell>
        <mxCell id="x16m9CoY5_Q_ytsuJj7b-85" value="Publish" style="edgeLabel;html=1;align=center;verticalAlign=middle;resizable=0;points=[];" vertex="1" connectable="0" parent="x16m9CoY5_Q_ytsuJj7b-84">
          <mxGeometry x="-0.43" y="-4" relative="1" as="geometry">
            <mxPoint x="10" y="-4" as="offset" />
          </mxGeometry>
        </mxCell>
        <mxCell id="x16m9CoY5_Q_ytsuJj7b-78" value="Block&lt;div&gt;queue&lt;/div&gt;" style="ellipse;whiteSpace=wrap;html=1;rounded=0;" vertex="1" parent="1">
          <mxGeometry x="290" y="670" width="80" height="80" as="geometry" />
        </mxCell>
        <mxCell id="x16m9CoY5_Q_ytsuJj7b-83" value="Transaction&lt;div&gt;queue&lt;/div&gt;" style="ellipse;whiteSpace=wrap;html=1;rounded=0;" vertex="1" parent="1">
          <mxGeometry x="430" y="670" width="80" height="80" as="geometry" />
        </mxCell>
        <mxCell id="x16m9CoY5_Q_ytsuJj7b-90" value="" style="edgeStyle=orthogonalEdgeStyle;rounded=0;orthogonalLoop=1;jettySize=auto;html=1;" edge="1" parent="1" source="x16m9CoY5_Q_ytsuJj7b-86" target="x16m9CoY5_Q_ytsuJj7b-89">
          <mxGeometry relative="1" as="geometry" />
        </mxCell>
        <mxCell id="x16m9CoY5_Q_ytsuJj7b-91" value="Publish" style="edgeLabel;html=1;align=center;verticalAlign=middle;resizable=0;points=[];" vertex="1" connectable="0" parent="x16m9CoY5_Q_ytsuJj7b-90">
          <mxGeometry x="-0.305" y="-1" relative="1" as="geometry">
            <mxPoint x="6" y="-1" as="offset" />
          </mxGeometry>
        </mxCell>
        <mxCell id="x16m9CoY5_Q_ytsuJj7b-86" value="Transaction&lt;div&gt;queue&lt;/div&gt;" style="ellipse;whiteSpace=wrap;html=1;rounded=0;" vertex="1" parent="1">
          <mxGeometry x="285" y="815" width="80" height="80" as="geometry" />
        </mxCell>
        <mxCell id="x16m9CoY5_Q_ytsuJj7b-89" value="Transaction&lt;div&gt;receipt&lt;/div&gt;&lt;div&gt;queue&lt;/div&gt;" style="ellipse;whiteSpace=wrap;html=1;rounded=0;" vertex="1" parent="1">
          <mxGeometry x="435" y="815" width="80" height="80" as="geometry" />
        </mxCell>
        <mxCell id="x16m9CoY5_Q_ytsuJj7b-96" value="" style="edgeStyle=orthogonalEdgeStyle;rounded=0;orthogonalLoop=1;jettySize=auto;html=1;" edge="1" parent="1" source="x16m9CoY5_Q_ytsuJj7b-92" target="x16m9CoY5_Q_ytsuJj7b-95">
          <mxGeometry relative="1" as="geometry" />
        </mxCell>
        <mxCell id="x16m9CoY5_Q_ytsuJj7b-97" value="Publish" style="edgeLabel;html=1;align=center;verticalAlign=middle;resizable=0;points=[];" vertex="1" connectable="0" parent="x16m9CoY5_Q_ytsuJj7b-96">
          <mxGeometry x="-0.3187" y="-1" relative="1" as="geometry">
            <mxPoint x="8" y="-1" as="offset" />
          </mxGeometry>
        </mxCell>
        <mxCell id="x16m9CoY5_Q_ytsuJj7b-92" value="Transaction&lt;div&gt;receipt&lt;/div&gt;&lt;div&gt;queue&lt;/div&gt;" style="ellipse;whiteSpace=wrap;html=1;rounded=0;" vertex="1" parent="1">
          <mxGeometry x="285" y="939" width="80" height="80" as="geometry" />
        </mxCell>
        <mxCell id="x16m9CoY5_Q_ytsuJj7b-95" value="Aggregator&lt;div&gt;exchange&lt;/div&gt;" style="ellipse;whiteSpace=wrap;html=1;rounded=0;" vertex="1" parent="1">
          <mxGeometry x="435" y="939" width="156" height="80" as="geometry" />
        </mxCell>
        <mxCell id="x16m9CoY5_Q_ytsuJj7b-100" value="" style="edgeStyle=orthogonalEdgeStyle;rounded=0;orthogonalLoop=1;jettySize=auto;html=1;" edge="1" parent="1" source="x16m9CoY5_Q_ytsuJj7b-98" target="x16m9CoY5_Q_ytsuJj7b-99">
          <mxGeometry relative="1" as="geometry" />
        </mxCell>
        <mxCell id="x16m9CoY5_Q_ytsuJj7b-101" value="Consume" style="edgeLabel;html=1;align=center;verticalAlign=middle;resizable=0;points=[];" vertex="1" connectable="0" parent="x16m9CoY5_Q_ytsuJj7b-100">
          <mxGeometry x="-0.1253" y="-4" relative="1" as="geometry">
            <mxPoint x="14" y="-4" as="offset" />
          </mxGeometry>
        </mxCell>
        <mxCell id="x16m9CoY5_Q_ytsuJj7b-103" value="" style="edgeStyle=orthogonalEdgeStyle;rounded=0;orthogonalLoop=1;jettySize=auto;html=1;" edge="1" parent="1" source="x16m9CoY5_Q_ytsuJj7b-99" target="x16m9CoY5_Q_ytsuJj7b-102">
          <mxGeometry relative="1" as="geometry" />
        </mxCell>
        <mxCell id="x16m9CoY5_Q_ytsuJj7b-104" value="Publish" style="edgeLabel;html=1;align=center;verticalAlign=middle;resizable=0;points=[];" vertex="1" connectable="0" parent="x16m9CoY5_Q_ytsuJj7b-103">
          <mxGeometry x="-0.18" y="-2" relative="1" as="geometry">
            <mxPoint y="-2" as="offset" />
          </mxGeometry>
        </mxCell>
        <mxCell id="x16m9CoY5_Q_ytsuJj7b-99" value="Transfer queue" style="ellipse;whiteSpace=wrap;html=1;rounded=0;" vertex="1" parent="1">
          <mxGeometry x="285" y="1061" width="80" height="80" as="geometry" />
        </mxCell>
        <mxCell id="x16m9CoY5_Q_ytsuJj7b-102" value="Balance&lt;div&gt;queue&lt;/div&gt;" style="ellipse;whiteSpace=wrap;html=1;rounded=0;" vertex="1" parent="1">
          <mxGeometry x="445" y="1061" width="80" height="80" as="geometry" />
        </mxCell>
        <mxCell id="x16m9CoY5_Q_ytsuJj7b-105" value="Database" style="shape=cylinder3;whiteSpace=wrap;html=1;boundedLbl=1;backgroundOutline=1;size=15;" vertex="1" parent="1">
          <mxGeometry x="690" y="630" width="110" height="160" as="geometry" />
        </mxCell>
        <mxCell id="x16m9CoY5_Q_ytsuJj7b-107" style="edgeStyle=orthogonalEdgeStyle;rounded=0;orthogonalLoop=1;jettySize=auto;html=1;exitX=0.5;exitY=0;exitDx=0;exitDy=0;" edge="1" parent="1" source="x16m9CoY5_Q_ytsuJj7b-78">
          <mxGeometry relative="1" as="geometry">
            <mxPoint x="690" y="650" as="targetPoint" />
            <Array as="points">
              <mxPoint x="330" y="650" />
              <mxPoint x="690" y="650" />
            </Array>
          </mxGeometry>
        </mxCell>
        <mxCell id="x16m9CoY5_Q_ytsuJj7b-108" value="Insert" style="edgeLabel;html=1;align=center;verticalAlign=middle;resizable=0;points=[];" vertex="1" connectable="0" parent="x16m9CoY5_Q_ytsuJj7b-107">
          <mxGeometry x="-0.632" y="-1" relative="1" as="geometry">
            <mxPoint as="offset" />
          </mxGeometry>
        </mxCell>
        <mxCell id="x16m9CoY5_Q_ytsuJj7b-111" style="edgeStyle=orthogonalEdgeStyle;rounded=0;orthogonalLoop=1;jettySize=auto;html=1;entryX=0.145;entryY=1;entryDx=0;entryDy=-4.35;entryPerimeter=0;exitX=0.5;exitY=0;exitDx=0;exitDy=0;" edge="1" parent="1" source="x16m9CoY5_Q_ytsuJj7b-92" target="x16m9CoY5_Q_ytsuJj7b-105">
          <mxGeometry relative="1" as="geometry">
            <Array as="points">
              <mxPoint x="320" y="939" />
              <mxPoint x="320" y="920" />
              <mxPoint x="706" y="920" />
            </Array>
          </mxGeometry>
        </mxCell>
        <mxCell id="x16m9CoY5_Q_ytsuJj7b-112" value="Insert" style="edgeLabel;html=1;align=center;verticalAlign=middle;resizable=0;points=[];" vertex="1" connectable="0" parent="x16m9CoY5_Q_ytsuJj7b-111">
          <mxGeometry x="-0.4937" y="-1" relative="1" as="geometry">
            <mxPoint as="offset" />
          </mxGeometry>
        </mxCell>
        <mxCell id="x16m9CoY5_Q_ytsuJj7b-113" style="edgeStyle=orthogonalEdgeStyle;rounded=0;orthogonalLoop=1;jettySize=auto;html=1;entryX=0.5;entryY=1;entryDx=0;entryDy=0;entryPerimeter=0;exitX=0.5;exitY=0;exitDx=0;exitDy=0;" edge="1" parent="1" source="x16m9CoY5_Q_ytsuJj7b-99" target="x16m9CoY5_Q_ytsuJj7b-105">
          <mxGeometry relative="1" as="geometry">
            <Array as="points">
              <mxPoint x="325" y="1040" />
              <mxPoint x="745" y="1040" />
            </Array>
          </mxGeometry>
        </mxCell>
        <mxCell id="x16m9CoY5_Q_ytsuJj7b-115" value="Insert" style="edgeLabel;html=1;align=center;verticalAlign=middle;resizable=0;points=[];" vertex="1" connectable="0" parent="x16m9CoY5_Q_ytsuJj7b-113">
          <mxGeometry x="-0.7641" y="1" relative="1" as="geometry">
            <mxPoint as="offset" />
          </mxGeometry>
        </mxCell>
        <mxCell id="x16m9CoY5_Q_ytsuJj7b-116" style="edgeStyle=orthogonalEdgeStyle;rounded=0;orthogonalLoop=1;jettySize=auto;html=1;exitX=0.5;exitY=0;exitDx=0;exitDy=0;" edge="1" parent="1" source="x16m9CoY5_Q_ytsuJj7b-86">
          <mxGeometry relative="1" as="geometry">
            <mxPoint x="690" y="770" as="targetPoint" />
            <Array as="points">
              <mxPoint x="325" y="770" />
            </Array>
          </mxGeometry>
        </mxCell>
        <mxCell id="x16m9CoY5_Q_ytsuJj7b-117" value="Insert" style="edgeLabel;html=1;align=center;verticalAlign=middle;resizable=0;points=[];" vertex="1" connectable="0" parent="x16m9CoY5_Q_ytsuJj7b-116">
          <mxGeometry x="-0.6966" y="-2" relative="1" as="geometry">
            <mxPoint x="38" y="-2" as="offset" />
          </mxGeometry>
        </mxCell>
        <mxCell id="x16m9CoY5_Q_ytsuJj7b-125" value="Node container" style="swimlane;whiteSpace=wrap;html=1;" vertex="1" parent="1">
          <mxGeometry x="10" y="625" width="180" height="525" as="geometry" />
        </mxCell>
        <mxCell id="x16m9CoY5_Q_ytsuJj7b-48" value="Block Consumer" style="rounded=0;whiteSpace=wrap;html=1;" vertex="1" parent="x16m9CoY5_Q_ytsuJj7b-125">
          <mxGeometry x="27.5" y="55" width="120" height="60" as="geometry" />
        </mxCell>
        <mxCell id="x16m9CoY5_Q_ytsuJj7b-57" value="Transaction Consumer" style="rounded=0;whiteSpace=wrap;html=1;" vertex="1" parent="x16m9CoY5_Q_ytsuJj7b-125">
          <mxGeometry x="30" y="200" width="120" height="60" as="geometry" />
        </mxCell>
        <mxCell id="x16m9CoY5_Q_ytsuJj7b-70" value="Transaction&lt;div&gt;Receipt&lt;/div&gt;&lt;div&gt;Consumer&lt;/div&gt;" style="rounded=0;whiteSpace=wrap;html=1;" vertex="1" parent="x16m9CoY5_Q_ytsuJj7b-125">
          <mxGeometry x="32.5" y="324" width="120" height="60" as="geometry" />
        </mxCell>
        <mxCell id="x16m9CoY5_Q_ytsuJj7b-98" value="Transfer consumer" style="rounded=0;whiteSpace=wrap;html=1;" vertex="1" parent="x16m9CoY5_Q_ytsuJj7b-125">
          <mxGeometry x="32.5" y="446" width="120" height="60" as="geometry" />
        </mxCell>
        <mxCell id="x16m9CoY5_Q_ytsuJj7b-133" value="API Server" style="swimlane;fontStyle=0;childLayout=stackLayout;horizontal=1;startSize=30;horizontalStack=0;resizeParent=1;resizeParentMax=0;resizeLast=0;collapsible=1;marginBottom=0;whiteSpace=wrap;html=1;" vertex="1" parent="1">
          <mxGeometry x="840" y="610" width="310" height="120" as="geometry" />
        </mxCell>
        <mxCell id="x16m9CoY5_Q_ytsuJj7b-134" value="Endpoint 1" style="text;strokeColor=none;fillColor=none;align=left;verticalAlign=middle;spacingLeft=4;spacingRight=4;overflow=hidden;points=[[0,0.5],[1,0.5]];portConstraint=eastwest;rotatable=0;whiteSpace=wrap;html=1;" vertex="1" parent="x16m9CoY5_Q_ytsuJj7b-133">
          <mxGeometry y="30" width="310" height="30" as="geometry" />
        </mxCell>
        <mxCell id="x16m9CoY5_Q_ytsuJj7b-135" value="Endpoint 2" style="text;strokeColor=none;fillColor=none;align=left;verticalAlign=middle;spacingLeft=4;spacingRight=4;overflow=hidden;points=[[0,0.5],[1,0.5]];portConstraint=eastwest;rotatable=0;whiteSpace=wrap;html=1;" vertex="1" parent="x16m9CoY5_Q_ytsuJj7b-133">
          <mxGeometry y="60" width="310" height="30" as="geometry" />
        </mxCell>
        <mxCell id="x16m9CoY5_Q_ytsuJj7b-136" value="Endpoint 3" style="text;strokeColor=none;fillColor=none;align=left;verticalAlign=middle;spacingLeft=4;spacingRight=4;overflow=hidden;points=[[0,0.5],[1,0.5]];portConstraint=eastwest;rotatable=0;whiteSpace=wrap;html=1;" vertex="1" parent="x16m9CoY5_Q_ytsuJj7b-133">
          <mxGeometry y="90" width="310" height="30" as="geometry" />
        </mxCell>
        <mxCell id="x16m9CoY5_Q_ytsuJj7b-137" value="Next.JS Frontend" style="swimlane;whiteSpace=wrap;html=1;" vertex="1" parent="1">
          <mxGeometry x="840" y="800" width="310" height="130" as="geometry" />
        </mxCell>
        <mxCell id="x16m9CoY5_Q_ytsuJj7b-138" style="edgeStyle=orthogonalEdgeStyle;rounded=0;orthogonalLoop=1;jettySize=auto;html=1;entryX=1;entryY=0;entryDx=0;entryDy=47.5;entryPerimeter=0;" edge="1" parent="1" source="x16m9CoY5_Q_ytsuJj7b-135" target="x16m9CoY5_Q_ytsuJj7b-105">
          <mxGeometry relative="1" as="geometry" />
        </mxCell>
        <mxCell id="x16m9CoY5_Q_ytsuJj7b-139" style="edgeStyle=orthogonalEdgeStyle;rounded=0;orthogonalLoop=1;jettySize=auto;html=1;entryX=1;entryY=1;entryDx=0;entryDy=-15;entryPerimeter=0;" edge="1" parent="1" source="x16m9CoY5_Q_ytsuJj7b-137" target="x16m9CoY5_Q_ytsuJj7b-105">
          <mxGeometry relative="1" as="geometry" />
        </mxCell>
      </root>
    </mxGraphModel>
  </diagram>
</mxfile>
